<svg
  width="512"
  height="512"
  viewBox="0 0 512 512"
  fill="none"
  xmlns="http://www.w3.org/2000/svg"
  role="img"
  aria-labelledby="title desc"
>
  <title id="title">Avatar placeholder</title>
  <desc id="desc">A calm abstract avatar with initials in the center.</desc>
  <defs>
    <linearGradient id="bg" x1="72" y1="72" x2="456" y2="456" gradientUnits="userSpaceOnUse">
      <stop stop-color="#D9EFE8" />
      <stop offset="1" stop-color="#F4E8D9" />
    </linearGradient>
    <radialGradient
      id="shade"
      cx="0"
      cy="0"
      r="1"
      gradientUnits="userSpaceOnUse"
      gradientTransform="translate(256 202) rotate(90) scale(230)"
    >
      <stop stop-color="#0F4C5C" stop-opacity="0.14" />
      <stop offset="1" stop-color="#0F4C5C" stop-opacity="0" />
    </radialGradient>
    <filter id="grain" x="-20%" y="-20%" width="140%" height="140%">
      <feTurbulence type="fractalNoise" baseFrequency="0.8" numOctaves="3" stitchTiles="stitch" />
      <feColorMatrix
        type="matrix"
        values="0 0 0 0 0
                0 0 0 0 0
                0 0 0 0 0
                0 0 0 0.055 0"
      />
    </filter>
  </defs>

  <rect x="40" y="40" width="432" height="432" rx="216" fill="url(#bg)" />
  <rect x="40" y="40" width="432" height="432" rx="216" fill="url(#shade)" />

  <g opacity="0.92">
    <path
      d="M114 310C162 262 198 248 240 250C291 252 327 280 398 244"
      stroke="#0F4C5C"
      stroke-opacity="0.55"
      stroke-width="8"
      stroke-linecap="round"
    />
    <path
      d="M118 218C168 202 214 208 254 228C298 250 340 282 392 292"
      stroke="#0F4C5C"
      stroke-opacity="0.22"
      stroke-width="10"
      stroke-linecap="round"
    />
    <circle cx="178" cy="176" r="10" fill="#0F4C5C" fill-opacity="0.35" />
    <circle cx="340" cy="176" r="10" fill="#0F4C5C" fill-opacity="0.35" />
  </g>

  <g filter="url(#grain)">
    <rect x="40" y="40" width="432" height="432" rx="216" fill="#000" opacity="0.18" />
  </g>

  <text
    x="256"
    y="310"
    text-anchor="middle"
    font-family="IBM Plex Sans, Arial, sans-serif"
    font-size="110"
    font-weight="600"
    fill="#0F4C5C"
    fill-opacity="0.85"
    letter-spacing="2"
  >
    YN
  </text>
</svg>

